<svg width="256" height="256" viewBox="0 0 256 256" fill="none" xmlns="http://www.w3.org/2000/svg">
  <rect width="256" height="256" rx="56" fill="#0B5AD4"/>
  <circle cx="74" cy="86" r="16" fill="#9FD3FF"/>
  <circle cx="128" cy="64" r="14" fill="#6FF3D4"/>
  <circle cx="180" cy="92" r="16" fill="#9FD3FF"/>
  <circle cx="78" cy="168" r="15" fill="#6FF3D4"/>
  <circle cx="132" cy="194" r="14" fill="#9FD3FF"/>
  <circle cx="184" cy="164" r="15" fill="#6FF3D4"/>
  <path d="M74 86C95 76 108 72 128 64C148 72 161 80 180 92" stroke="white" stroke-width="8" stroke-linecap="round" opacity="0.92"/>
  <path d="M78 168C101 184 112 188 132 194C154 185 166 178 184 164" stroke="white" stroke-width="8" stroke-linecap="round" opacity="0.92"/>
  <path d="M74 86C74 111 75 137 78 168" stroke="white" stroke-width="8" stroke-linecap="round" opacity="0.92"/>
  <path d="M128 64C128 108 129 151 132 194" stroke="white" stroke-width="8" stroke-linecap="round" opacity="0.92"/>
  <path d="M180 92C181 118 182 140 184 164" stroke="white" stroke-width="8" stroke-linecap="round" opacity="0.92"/>
</svg>
